<svg version="1.1" xmlns="http://www.w3.org/2000/svg" viewBox="0 0 35.5 35.5" >
  <circle class="svg-bag-background" cx="17.7" cy="17.7" r="17.7"/>
  <g id="svg-bag-device">
    <rect class="svg-bag-deviceframe" x="14.8" y="12.6" transform="matrix(0.9551 0.2962 -0.2962 0.9551 5.9504 -4.4481)" width="5.8" height="9.6"/>
    <path class="svg-bag-devicescreen" d="M18.8,21.9l-4.6-1.4c0,0-0.1,0,0-0.1l2.4-7.9c0,0,0-0.1,0.1,0l4.6,1.4 c0,0,0.1,0,0,0.1L18.8,21.9C18.9,21.9,18.8,21.9,18.8,21.9z"/>
    <path class="svg-bag-device-mic" d="M17.3,21.9l-1.9-0.6c0,0,0,0,0-0.1l0,0c0,0,0,0,0.1,0l1.9,0.6 C17.4,21.8,17.4,21.8,17.3,21.9L17.3,21.9C17.4,21.9,17.4,21.9,17.3,21.9z"/>
  </g>
  <g id="svg-bag-bag">
    <polygon class="svg-bag-bagside" points="28.8,28.4 26,28.4 26,9.7 27.4,9.7  "/>
    <polygon class="svg-bag-bagfront" points="26,28.4 7.3,28.4 8.3,9.7 26,9.7   "/>
    <path class="svg-bag-baghandle" d="M22.9,9.7c-0.3-2.2-1.3-5.5-5.2-5.5c-4,0-5.1,3.3-5.4,5.5"/>
    <path class="svg-bag-baglogo" d="M20.8,17.4C19.6,17.1,18,17,16.6,17c0.5-1,1.3-2,1.9-2.6l-0.2-0.1c0,0-1.8,1.1-3,3.9l0.6,0.2 c0.1-0.3,0.3-0.6,0.5-0.9c1.2,0,3,0.1,4.5,0.4c-1.6,0.3-4.7,1.1-6.4,4.9c0,0,0.3-1.9,1.2-3.6c0.2,0.1,0.6,0.2,0.6,0.2l0.5-0.4 c-1.2-0.6-2.5-0.9-4-1.1c0,0,1-0.3,2.6-0.4l0.2-0.4c-2.7,0.1-4.8,0.9-4.3,1c0.5,0.1,1.8,0.2,3.7,0.9c-1.2,2.6-1.4,5.6-1,5.8 c0.4,0.2,1.4-3.2,3.4-4.7c0,0,1.8,0.9,3.2,2.3c0.1-0.1,0.1-0.1,0.2-0.1c-0.8-1-1.9-2-2.9-2.5c0.7-0.5,2.1-1.1,3.5-1.3 C21.9,18.2,23.1,17.8,20.8,17.4z"/>
    <circle class="svg-bag-baglogo" cx="21.1" cy="22.8" r="0.4"/>
    <circle class="svg-bag-baglogo" cx="19" cy="13.8" r="0.4"/>
  </g>
</svg>
