<svg version="1.1" xmlns="http://www.w3.org/2000/svg" viewBox="0 0 35.5 35.5">
  <circle class="svg-burst-background" cx="17.7" cy="17.7" r="17.7"/>
  <polygon id="svg-burst-burst" class="svg-burst-burst" points="17.9,4.7 20,11.8 25.8,7.3 23.3,14.2 30.7,14 24.6,18.2 30.7,22.4 23.3,22.2 25.8,29.1 20,24.6 17.9,31.7 15.8,24.6 10,29.1 12.4,22.2 5.1,22.4 11.1,18.2 5.1,14 12.4,14.2 10,7.3 15.8,11.8 "/>
  <path id="svg-burst-dollar" class="svg-burst-dollar" d="M18.5,14.9c0.7,0,1.2,0.2,1.5,0.5v0.4h-0.2c-0.3-0.3-0.7-0.5-1.3-0.5v2.5c1.2,0.3,1.8,0.7,1.8,1.7 c0,1.1-0.7,1.7-1.8,1.8v0.9h-0.4v-0.9c-0.9,0-1.4-0.3-1.8-0.6v-0.4h0.2c0.3,0.3,0.8,0.6,1.6,0.6v-2.7c-1.1-0.3-1.7-0.7-1.7-1.7 c0-0.9,0.6-1.5,1.7-1.6v-0.5h0.4V14.9z M18.1,17.7v-2.4c-0.9,0.1-1.2,0.6-1.2,1.2C16.9,17.2,17.3,17.5,18.1,17.7z M18.5,18.2v2.6 c0.8-0.1,1.4-0.5,1.4-1.3C19.8,18.7,19.3,18.5,18.5,18.2z"/>
</svg>
