<svg version="1.1" xmlns="http://www.w3.org/2000/svg" viewBox="0 0 74.9 74.9">
  <circle class="svg-cart-background" cx="37.4" cy="37.4" r="35.4"/>
  <rect class="svg-cart-box svg-cart-box-dark"x="23.8" y="24.7" transform="matrix(0.9729 -0.2311 0.2311 0.9729 -6.0909 7.4672)" width="10.1" height="10.1"/>
  <rect class="svg-cart-box svg-cart-box-light" x="29.1" y="19.7" transform="matrix(0.9255 -0.3787 0.3787 0.9255 -6.8355 14.7642)" width="10.1" height="10.1"/>
  <rect class="svg-cart-box svg-cart-box-dark"x="36.7" y="21.1" transform="matrix(0.9306 0.3659 -0.3659 0.9306 12.4489 -13.4447)" width="10.1" height="10.1"/>
  <rect class="svg-cart-box svg-cart-box-light" x="42.1" y="26.8" transform="matrix(0.966 0.2586 -0.2586 0.966 9.827 -11.1171)" width="10.1" height="10.1"/>
  <path class="svg-cart-cart" d="M54.7,49.6c-0.5,0-1,0-1.5,0c-7.4,0-14.8,0-22.2,0c-1.9,0-2.8-1.8-3.2-3.6c0.3-0.1,0.5-0.2,0.8-0.2 c8.4-1.6,16.8-1.4,25.2-3c0.5-0.1,1-0.1,1-0.9c0-3.1,0-8,0-11.3c-0.6,0-1.1,0-1.6,0c-9.6,0-19.1,0-28.7,0c-1.1,0-1.6-0.3-1.8-1.4 c-0.2-0.8-0.4-1.7-0.7-2.5c-0.1-0.3-0.4-0.6-0.7-0.6c-2.1,0-4.2,0-6.4,0c0.5,2.4,0.5,2.3,2.8,2.6c0.3,0,0.8,0.5,0.9,0.9 c1.8,5.9,3.5,11.8,5.2,17.7c0.6,2.2,1.9,3.7,3.6,4.6c-0.2,0.5-0.3,1-0.3,1.6c0,2,1.7,3.8,3.8,3.8c2.1,0,3.8-1.7,3.8-3.8 c0-0.3,0-0.5-0.1-0.8c4.2,0,8.3,0,12.5,0c0,0.2-0.1,0.5-0.1,0.7c0,2.1,1.7,3.9,3.8,3.9c2.1,0,3.8-1.7,3.8-3.8c0-0.3,0-0.5-0.1-0.7 C54.7,51.2,54.7,50.9,54.7,49.6z"/>
  <g class="svg-cart-plussign">
    <circle cx="37.6" cy="31.8" r="7.4"/>
    <path d="M34.1,32.2v-0.8h3v-3.3H38v3.3h3.1v0.8H38v3.3h-0.9v-3.3H34.1z"/>
  </g>
</svg>