<svg version="1.1" xmlns="http://www.w3.org/2000/svg" viewBox="0 0 70.9 70.9">
  <circle class=" svg-customericon-background" cx="35.4" cy="35.4" r="33.9"/>
  <g class="svg-customericon-customer">
    <circle cx="34.9" cy="28.4" r="13"/>
    <path d="M35.2,41.5c-10.3,0-18.5,4.3-25.6,14.5c0,0,9.7,13.4,25.4,13.4C53.6,69.5,61,55.7,61,55.7 C55.7,48,45.3,41.5,35.2,41.5z"/>
  </g>
  <g class="svg-customericon-logo">
    <path class="st2" d="M40.7,53.7c-1.6-0.3-3.8-0.5-5.6-0.5c0.7-1.4,1.7-2.7,2.6-3.5l-0.2-0.2c0,0-2.3,1.4-4,5.2l0.8,0.3
      c0.2-0.4,0.4-0.8,0.6-1.2c1.6,0,3.9,0.1,6,0.5c-2.2,0.4-6.2,1.4-8.5,6.5c0,0,0.4-2.5,1.5-4.7c0.2,0.1,0.8,0.3,0.8,0.3l0.6-0.5
      c-1.6-0.8-3.4-1.2-5.3-1.5c0,0,1.3-0.4,3.5-0.6l0.3-0.6c-3.6,0.1-6.3,1.2-5.8,1.3c0.6,0.2,2.4,0.3,4.9,1.1
      c-1.6,3.4-1.8,7.4-1.3,7.8c0.6,0.3,1.9-4.2,4.5-6.3c0,0,2.3,1.2,4.3,3.1c0.1-0.1,0.2-0.1,0.3-0.2c-1.1-1.4-2.5-2.7-3.9-3.3
      c1-0.7,2.8-1.4,4.6-1.8C42.1,54.7,43.7,54.3,40.7,53.7z"/>
    <circle class="st2" cx="41.1" cy="60.9" r="0.5"/>
    <circle class="st2" cx="38.3" cy="48.9" r="0.5"/>
  </g>
</svg>
