<svg version="1.1" xmlns="http://www.w3.org/2000/svg" viewBox="0 0 35.5 35.5">
  <circle class="svg-gigabyte-background" cx="17.7" cy="17.7" r="17.7"/>
  <g id="svg-gigabyte-device">
    <rect class="svg-gigabyte-deviceframe" x="8.3" y="7.2" width="11" height="18.1"/>
    <path class="svg-gigabyte-devicescreen" d="M18.4,23.8H9.2c0,0-0.1,0-0.1-0.1V8.1c0,0,0-0.1,0.1-0.1h9.2c0,0,0.1,0,0.1,0.1L18.4,23.8 C18.5,23.8,18.5,23.8,18.4,23.8z"/>
    <path class=".svg-gigabyte-devicemic" d="M15.7,24.6h-3.8c-0.1,0-0.1-0.1-0.1-0.1l0,0c0-0.1,0.1-0.1,0.1-0.1h3.8c0.1,0,0.1,0.1,0.1,0.1l0,0 C15.9,24.5,15.8,24.6,15.7,24.6z"/>
  </g>
  <g id="svg-gigabyte-gb">
    <path class="svg-gigabyte-gbbackground" d="M26,28.2h-8.7c-1.4,0-2.6-1.2-2.6-2.6v-6.7c0-1.4,1.2-2.6,2.6-2.6H26c1.4,0,2.6,1.2,2.6,2.6v6.7 C28.7,27.1,27.5,28.2,26,28.2z"/>
    <path class="svg-gigabyte-gbletters" d="M16.2,22.1c0-2.1,1.2-3.2,3.2-3.2c0.8,0,1.2,0.1,1.8,0.4v1.1h-0.5c-0.3-0.3-0.6-0.4-1.3-0.4 c-1.1,0-1.7,0.6-1.7,2.2c0,1.6,0.5,2.3,1.5,2.3c0.4,0,0.6,0,0.9-0.1v-1.4h-0.9v-0.9h2.2v2.9c-0.6,0.3-1.4,0.5-2.2,0.5 C17.3,25.3,16.2,24.1,16.2,22.1z"/>
    <path class="svg-gigabyte-gbletters" d="M22.2,18.9h2.2c1.5,0,2.2,0.5,2.2,1.7c0,0.8-0.5,1.2-1.1,1.3v0c0.8,0.2,1.4,0.6,1.4,1.5 c0,1.2-0.8,1.8-2.4,1.8h-2.2V18.9z M24.3,21.5c0.6,0,0.9-0.3,0.9-0.8c0-0.5-0.3-0.8-0.9-0.8h-0.7v1.6H24.3z M24.4,24.2 c0.7,0,1-0.4,1-0.9c0-0.6-0.3-0.9-1-0.9h-0.8v1.8H24.4z"/>
  </g>
</svg>
