<svg version="1.1" xmlns="http://www.w3.org/2000/svg" viewBox="0 0 57.9 57.9">
  <circle class="svg-handset-background" cx="29" cy="29" r="29"/>
  <path id="svg-handset-handset" class="svg-handset-handset" d="M12.9,14.5l6.5,1L19.2,23c0,0,0.2,0.8-0.6,1.8s-2.2,1.6-2.2,1.6s0,2.9,0.6,4.8 s1.7,4.4,2.8,5.7c1.1,1.3,3.4,3.3,3.4,3.3s1.3-0.6,2.2-0.6c0.9-0.1,1.2,0,1.9,0.4c0.7,0.4,6.6,4.5,6.6,4.5l-3,5.8c0,0-4.5-1.3-6.9-3 c-2.4-1.6-7.4-5.7-10-11.1s-3.2-10.9-3-13.1C11.4,21,12.1,16.4,12.9,14.5z"/>
  <g id="svg-handset-soundwaves">
    <path class="svg-handset-soundwave" d="M26.8,18.7c0,0,4.6,0.7,7.2,4.7c2.6,4,1.7,9,1.7,9"/>
    <path class="svg-handset-soundwave" d="M29.2,13.8c0,0,6,0.9,9.5,6.1c3.4,5.2,2.2,11.7,2.2,11.7"/>
    <path class="svg-handset-soundwave" d="M31.7,7.6c0,0,7.9,1.2,12.5,8.1s2.9,15.5,2.9,15.5"/>
  </g>
</svg>