<svg version="1.1" xmlns="http://www.w3.org/2000/svg" viewBox="0 0 47.6 31.8">
  <g id="svg-laptop-computer">
    <rect class="svg-laptop-computerfront" x="4.3" y="28.7" width="43.3" height="0.5"/>
    <polygon class="svg-laptop-computerkeyboard" points="7.6,20.7 43.5,20.7 47.6,28.7 4.3,28.7  "/>
    <g class="svg-laptop-computerscreen-group">
      <rect id="svg-laptop-computerscreen" x="7.9" y="0.3" width="35.3" height="20.2"/>
      <path d="M43,0.5v19.7H8.2V0.5H43 M43.5,0H43H8.2H7.7v0.5v19.7v0.5h0.5H43h0.5v-0.5V0.5V0L43.5,0z"/>
    </g>
    <g id="svg-laptop-computerlogo">
      <path d="M30.3,7.3c-1.7-0.3-3.9-0.5-5.8-0.5c0.7-1.4,1.7-2.8,2.7-3.6L27,3c0,0-2.4,1.5-4.2,5.4l0.8,0.3 c0.2-0.4,0.4-0.8,0.6-1.3c1.7,0,4.1,0.2,6.2,0.6c-2.3,0.4-6.4,1.4-8.8,6.7c0,0,0.4-2.6,1.6-4.9c0.3,0.1,0.8,0.3,0.8,0.3l0.6-0.5
        c-1.6-0.8-3.5-1.3-5.5-1.5c0,0,1.3-0.4,3.6-0.6l0.3-0.6c-3.7,0.1-6.6,1.2-6,1.4c0.6,0.2,2.5,0.3,5.1,1.2c-1.6,3.6-1.9,7.7-1.3,8.1 c0.6,0.3,2-4.4,4.7-6.6c0,0,2.4,1.2,4.4,3.2c0.1-0.1,0.2-0.1,0.3-0.2c-1.1-1.4-2.6-2.8-4-3.5c1-0.7,2.9-1.5,4.8-1.9 C31.8,8.4,33.4,8,30.3,7.3z"/>
      <circle cx="30.7" cy="14.8" r="0.6"/>
      <circle cx="27.8" cy="2.4" r="0.6"/>
    </g>
    <polygon class="svg-laptop-computermouse" points="19.9,23.7 30.9,23.7 32.1,26.7 18.8,26.7   "/>
  </g>
  <g id="svg-laptop-phone">
    <rect class="svg-laptop-phoneframe" y="14.3" width="10.6" height="17.5"/>
    <path id="svg-laptop-phonescreen" class="svg-laptop-phonescreen" d="M9.7,30.3H0.8c0,0-0.1,0-0.1-0.1V15.1c0,0,0-0.1,0.1-0.1h8.9
      c0,0,0.1,0,0.1,0.1L9.7,30.3C9.8,30.2,9.8,30.3,9.7,30.3z"/>
    <path class="svg-laptop-phonemic" d="M7.1,31H3.4c-0.1,0-0.1,0-0.1-0.1l0,0c0-0.1,0-0.1,0.1-0.1h3.7 c0.1,0,0.1,0,0.1,0.1l0,0C7.2,31,7.2,31,7.1,31z"/>
    <g id="svg-laptop-phonelogo" class="svg-laptop-phonelogo">
      <path d="M7.3,21.7c-0.7-0.1-1.6-0.2-2.4-0.2c0.3-0.6,0.7-1.2,1.1-1.5l-0.1-0.1c0,0-1,0.6-1.7,2.2l0.3,0.1
        c0.1-0.2,0.2-0.4,0.3-0.5c0.7,0,1.7,0.1,2.6,0.2c-1,0.2-2.7,0.6-3.7,2.8c0,0,0.2-1.1,0.7-2.1c0.1,0,0.3,0.1,0.3,0.1l0.3-0.2
        c-0.7-0.3-1.5-0.5-2.3-0.6c0,0,0.6-0.2,1.5-0.2l0.1-0.2c-1.5,0.1-2.7,0.5-2.5,0.6c0.3,0.1,1,0.1,2.1,0.5c-0.7,1.5-0.8,3.2-0.5,3.4
        c0.3,0.1,0.8-1.8,2-2.7c0,0,1,0.5,1.8,1.3c0,0,0.1-0.1,0.1-0.1c-0.5-0.6-1.1-1.2-1.7-1.4c0.4-0.3,1.2-0.6,2-0.8
        C8,22.1,8.6,21.9,7.3,21.7z"/>
      <circle cx="7.5" cy="24.8" r="0.2"/>
      <circle cx="6.3" cy="19.6" r="0.2"/>
    </g>
  </g>
</svg>









<svg version="1.1" xmlns="http://www.w3.org/2000/svg" viewBox="0 0 73.4 73.4">
  <circle class="svg-laptop-background" cx="36.7" cy="36.7" r="35.2"/>
  <g id="svg-laptop-computer">
    <rect class="svg-laptop-computerfront" x="18.4" y="47.1" width="43.3" height="0.5"/>
    <polygon class="svg-laptop-computerkeyboard" points="21.7,39.1 57.6,39.1 61.6,47.1 18.4,47.1  "/>
    <g class="svg-laptop-computerscreen-group">
      <rect id="svg-laptop-computerscreen" x="22" y="18.6" width="35.3" height="20.2"/>
      <path d="M57.1,18.9v19.7H22.3V18.9H57.1 M57.6,18.4h-0.5H22.3h-0.5v0.5v19.7v0.5h0.5h34.8h0.5v-0.5V18.9V18.4
        L57.6,18.4z"/>
    </g>
    <g class="svg-laptop-computerlogo">
      <path d="M44.4,25.7c-1.7-0.3-3.9-0.5-5.8-0.5c0.7-1.4,1.7-2.8,2.7-3.6L41,21.4c0,0-2.4,1.5-4.2,5.4l0.8,0.3
        c0.2-0.4,0.4-0.8,0.6-1.3c1.7,0,4.1,0.2,6.2,0.6c-2.3,0.4-6.4,1.4-8.8,6.7c0,0,0.4-2.6,1.6-4.9c0.3,0.1,0.8,0.3,0.8,0.3l0.6-0.5 c-1.6-0.8-3.5-1.3-5.5-1.5c0,0,1.3-0.4,3.6-0.6l0.3-0.6c-3.7,0.1-6.6,1.2-6,1.4c0.6,0.2,2.5,0.3,5.1,1.2c-1.6,3.6-1.9,7.7-1.3,8.1 c0.6,0.3,2-4.4,4.7-6.6c0,0,2.4,1.2,4.4,3.2c0.1-0.1,0.2-0.1,0.3-0.2c-1.1-1.4-2.6-2.8-4-3.5c1-0.7,2.9-1.5,4.8-1.9 C45.9,26.8,47.5,26.3,44.4,25.7z"/>
      <circle cx="44.8" cy="33.2" r="0.6"/>
      <circle cx="41.9" cy="20.8" r="0.6"/>
    </g>
    <polygon class="svg-laptop-computermouse" points="33.9,42.1 45,42.1 46.2,45.1 32.9,45.1   "/>
  </g>
  <g id="svg-laptop-phone">
    <rect class="svg-laptop-phoneframe" x="14.1" y="32.7" width="10.6" height="17.5"/>
    <path id="svg-laptop-phonescreen" class="svg-laptop-phonescreen" d="M23.8,48.6h-8.9c0,0-0.1,0-0.1-0.1V33.5c0,0,0-0.1,0.1-0.1h8.9
      c0,0,0.1,0,0.1,0.1L23.8,48.6C23.9,48.6,23.9,48.6,23.8,48.6z"/>
    <path class="svg-laptop-phonemic" d="M21.2,49.4h-3.7c-0.1,0-0.1,0-0.1-0.1l0,0c0-0.1,0-0.1,0.1-0.1h3.7 c0.1,0,0.1,0,0.1,0.1l0,0C21.3,49.4,21.3,49.4,21.2,49.4z"/>
    <g id="svg-laptop-phonelogo" class="svg-laptop-phonelogo">
      <path d="M21.4,40c-0.7-0.1-1.6-0.2-2.4-0.2c0.3-0.6,0.7-1.2,1.1-1.5L20,38.2c0,0-1,0.6-1.7,2.2l0.3,0.1 c0.1-0.2,0.2-0.4,0.3-0.5c0.7,0,1.7,0.1,2.6,0.2c-1,0.2-2.7,0.6-3.7,2.8c0,0,0.2-1.1,0.7-2.1c0.1,0,0.3,0.1,0.3,0.1L19,41 c-0.7-0.3-1.5-0.5-2.3-0.6c0,0,0.6-0.2,1.5-0.2l0.1-0.2c-1.5,0.1-2.7,0.5-2.5,0.6c0.3,0.1,1,0.1,2.1,0.5c-0.7,1.5-0.8,3.2-0.5,3.4 c0.3,0.1,0.8-1.8,2-2.7c0,0,1,0.5,1.8,1.3c0,0,0.1-0.1,0.1-0.1c-0.5-0.6-1.1-1.2-1.7-1.4c0.4-0.3,1.2-0.6,2-0.8 C22,40.5,22.7,40.3,21.4,40z"/>
      <circle cx="21.6" cy="43.2" r="0.2"/>
      <circle cx="20.4" cy="38" r="0.2"/>
    </g>
  </g>
</svg>
