<svg version="1.1" xmlns="http://www.w3.org/2000/svg" viewBox="0 0 37.6 38.9">
  <defs>
    <clippath id="magnify-clip">
      <circle cx="22.4" cy="15.2" r="12.7"/>
    </clippath>
  </defs>
  <path id="svg-magnify-frame" class="svg-magnify-frame" d="M32.7,4c-6.1-5.6-15.7-5.2-21.3,0.9C6.3,10.5,6.2,19,10.9,24.7L0.3,36.2c-0.5,0.5-0.4,1.3,0.1,1.7l0.7,0.6 C1.6,39,2.3,39,2.8,38.5L13.3,27c6.1,4.7,15,4.1,20.3-1.7C39.3,19.2,38.9,9.6,32.7,4z M31.8,23.8C27,29,19,29.4,13.8,24.6 S8.3,11.8,13,6.6c4.8-5.2,12.8-5.5,18-0.8C36.2,10.6,36.6,18.7,31.8,23.8z"/>
  <circle class="svg-magnify-glass" cx="22.4" cy="15.2" r="12.7"/>
  <g clip-path="url(#magnify-clip)">
    <g id="svg-magnify-phone" class="svg-magnify-phone">
      <rect class="svg-magnify-phoneframe" x="16.9" y="6" width="11" height="18.1" />
      <path class="svg-magnify-phonescreen" d="M27,22.5h-9.2c0,0-0.1,0-0.1-0.1V6.8c0,0,0-0.1,0.1-0.1H27c0,0,0.1,0,0.1,0.1L27,22.5 C27.1,22.5,27.1,22.5,27,22.5z" />
     <path class="svg-magnify-phonemic" d="M24.3,23.3h-3.8c-0.1,0-0.1-0.1-0.1-0.1l0,0c0-0.1,0.1-0.1,0.1-0.1h3.8c0.1,0,0.1,0.1,0.1,0.1l0,0 C24.5,23.3,24.4,23.3,24.3,23.3z"/>
    </g>
    <g id="svg-magnify-giga">
      <path class="svg-magnify-gigabackground" d="M26.8,21.2h-8.7c-1.4,0-2.6-1.2-2.6-2.6v-6.7c0-1.4,1.2-2.6,2.6-2.6h8.7c1.4,0,2.6,1.2,2.6,2.6l0,6.7 C29.4,20,28.2,21.2,26.8,21.2z" />
      <g id="svg-magnify-gigatype">
        <path id="svg-magnify-gigaletter" class="svg-magnify-gigaletter" d="M16.9,15c0-2.1,1.2-3.2,3.2-3.2c0.8,0,1.2,0.1,1.8,0.4v1.1h-0.5c-0.3-0.3-0.6-0.4-1.3-0.4 c-1.1,0-1.7,0.6-1.7,2.2c0,1.6,0.5,2.3,1.5,2.3c0.4,0,0.6,0,0.9-0.1v-1.4h-0.9v-0.9h2.2v2.9c-0.6,0.3-1.4,0.5-2.2,0.5 C18,18.2,16.9,17.1,16.9,15z"/>
        <path id="svg-magnify-gigaletter" class="svg-magnify-gigaletter" d="M22.9,11.9h2.2c1.5,0,2.2,0.5,2.2,1.7c0,0.8-0.5,1.2-1.1,1.3v0c0.8,0.2,1.4,0.6,1.4,1.5 c0,1.2-0.8,1.8-2.4,1.8h-2.2V11.9z M25.1,14.4c0.6,0,0.9-0.3,0.9-0.8c0-0.5-0.3-0.8-0.9-0.8h-0.7v1.6H25.1z M25.1,17.2 c0.7,0,1-0.4,1-0.9c0-0.6-0.3-0.9-1-0.9h-0.8v1.8H25.1z"/>
      </g>
    </g>
  </g>
</svg>