<svg version="1.1" xmlns="http://www.w3.org/2000/svg" viewBox="0 0 35.5 35.5">
  <circle class="svg-map-background" cx="17.7" cy="17.7" r="17.7"/>
  <path id="svg-map-land" class="svg-map-land" d="M6.7,9.5l4.9,0.8c0,0,4.6,0.2,5.6,0.2c1,0,1.7,0,1.7,0l0.8,1.2l1.9,0.7l-1,0.9l1.8-0.4l0.7,0.5l1.2-0.6L22.7,15 l0.1,2.5l0.6-0.3l0-1.8l1.1-1.3l0.8,1.4l-0.3,1.7l1.2,0.4l1-1.6l1.2-0.8l0.5-1.7l1.9-1l0.6-1.3l1.2,1.5l-1.2,1.9l0.4,0.9L30,17.8 l-0.6,1.1l0.2,1.2L29.2,21l-1.9,2.6l1.3,3.2l-0.3,0.9l-2.1-3l-0.9,0.4l-3-0.2l-2.8,0.7l-1.8,1.2l0.5,1.7l-1.9-1.4l-1.2-1.9L14,25.5 L13,25l-0.7-0.6h-0.6L9.5,24l-1.9-1.6l-1.5-0.2l-1.4-1.9l-1.1-3.7l1.2-3.9l0.7-3.3H6.7z"/>
  <path class="svg-map-marker" d="M8.9,10.3c-1.2,0-2.2,1-2.2,2.2c0,1.2,2.1,4.6,2.2,4.6c0,0,2.2-3.4,2.2-4.6C11.1,11.3,10.1,10.3,8.9,10.3z M8.9,13.7c-0.7,0-1.2-0.5-1.2-1.2s0.5-1.2,1.2-1.2s1.2,0.5,1.2,1.2S9.5,13.7,8.9,13.7z"/>
  <path class="svg-map-marker" d="M14.4,14.9c-0.4,0-0.8,0.4-0.8,0.8c0,0.4,0.7,1.6,0.8,1.6c0,0,0.8-1.2,0.8-1.6C15.2,15.3,14.9,14.9,14.4,14.9z M14.4,16.1c-0.2,0-0.4-0.2-0.4-0.4s0.2-0.4,0.4-0.4s0.4,0.2,0.4,0.4S14.7,16.1,14.4,16.1z"/>
  <path class="svg-map-marker" d="M16,17.4c-0.4,0-0.8,0.4-0.8,0.8c0,0.4,0.7,1.6,0.8,1.6c0,0,0.8-1.2,0.8-1.6C16.8,17.7,16.4,17.4,16,17.4z M16,18.6c-0.2,0-0.4-0.2-0.4-0.4s0.2-0.4,0.4-0.4c0.2,0,0.4,0.2,0.4,0.4S16.3,18.6,16,18.6z"/>
  <path class="svg-map-marker" d="M11.4,18.6c-0.4,0-0.8,0.4-0.8,0.8c0,0.4,0.7,1.6,0.8,1.6c0,0,0.8-1.2,0.8-1.6C12.2,18.9,11.8,18.6,11.4,18.6z M11.4,19.8c-0.2,0-0.4-0.2-0.4-0.4s0.2-0.4,0.4-0.4c0.2,0,0.4,0.2,0.4,0.4S11.6,19.8,11.4,19.8z"/>
  <path class="svg-map-marker" d="M17.7,14.9c-0.4,0-0.8,0.4-0.8,0.8c0,0.4,0.7,1.6,0.8,1.6c0,0,0.8-1.2,0.8-1.6C18.5,15.3,18.2,14.9,17.7,14.9z M17.7,16.1c-0.2,0-0.4-0.2-0.4-0.4s0.2-0.4,0.4-0.4c0.2,0,0.4,0.2,0.4,0.4S18,16.1,17.7,16.1z"/>
  <path class="svg-map-marker" d="M17,23c-0.4,0-0.8,0.4-0.8,0.8c0,0.4,0.7,1.6,0.8,1.6c0,0,0.8-1.2,0.8-1.6C17.7,23.3,17.4,23,17,23z M17,24.2 c-0.2,0-0.4-0.2-0.4-0.4s0.2-0.4,0.4-0.4c0.2,0,0.4,0.2,0.4,0.4S17.2,24.2,17,24.2z"/>
  <path class="svg-map-marker" d="M15.2,11.3c-0.4,0-0.8,0.4-0.8,0.8c0,0.4,0.7,1.6,0.8,1.6c0,0,0.8-1.2,0.8-1.6C16,11.7,15.7,11.3,15.2,11.3z M15.2,12.5c-0.2,0-0.4-0.2-0.4-0.4s0.2-0.4,0.4-0.4c0.2,0,0.4,0.2,0.4,0.4S15.5,12.5,15.2,12.5z"/>
  <path class="svg-map-marker" d="M25.4,21c-0.4,0-0.8,0.4-0.8,0.8c0,0.4,0.7,1.6,0.8,1.6c0,0,0.8-1.2,0.8-1.6C26.2,21.4,25.8,21,25.4,21z M25.4,22.2c-0.2,0-0.4-0.2-0.4-0.4s0.2-0.4,0.4-0.4c0.2,0,0.4,0.2,0.4,0.4S25.6,22.2,25.4,22.2z"/>
  <path class="svg-map-marker" d="M24.1,17.4c-0.4,0-0.8,0.4-0.8,0.8c0,0.4,0.7,1.6,0.8,1.6c0,0,0.8-1.2,0.8-1.6C24.9,17.7,24.6,17.4,24.1,17.4z M24.1,18.6c-0.2,0-0.4-0.2-0.4-0.4s0.2-0.4,0.4-0.4s0.4,0.2,0.4,0.4S24.4,18.6,24.1,18.6z"/>
  <path class="svg-map-marker" d="M27,17.8c-0.4,0-0.8,0.4-0.8,0.8c0,0.4,0.7,1.6,0.8,1.6c0,0,0.8-1.2,0.8-1.6C27.7,18.1,27.4,17.8,27,17.8z M27,19c-0.2,0-0.4-0.2-0.4-0.4c0-0.2,0.2-0.4,0.4-0.4c0.2,0,0.4,0.2,0.4,0.4C27.4,18.8,27.2,19,27,19z"/>
  <path class="svg-map-marker" d="M14.4,21c-0.4,0-0.8,0.4-0.8,0.8c0,0.4,0.7,1.6,0.8,1.6c0,0,0.8-1.2,0.8-1.6C15.2,21.4,14.9,21,14.4,21z M14.4,22.2c-0.2,0-0.4-0.2-0.4-0.4c0-0.2,0.2-0.4,0.4-0.4c0.2,0,0.4,0.2,0.4,0.4C14.9,22,14.7,22.2,14.4,22.2z"/>
  <path class="svg-map-marker" d="M6.2,17.8c-0.4,0-0.8,0.4-0.8,0.8c0,0.4,0.7,1.6,0.8,1.6c0,0,0.8-1.2,0.8-1.6C7,18.1,6.6,17.8,6.2,17.8z M6.2,19c-0.2,0-0.4-0.2-0.4-0.4c0-0.2,0.2-0.4,0.4-0.4c0.2,0,0.4,0.2,0.4,0.4C6.6,18.8,6.4,19,6.2,19z"/>
  <path class="svg-map-marker" d="M19.3,19.4c-0.4,0-0.8,0.4-0.8,0.8c0,0.4,0.7,1.6,0.8,1.6c0,0,0.8-1.2,0.8-1.6C20.1,19.7,19.7,19.4,19.3,19.4z M19.3,20.6c-0.2,0-0.4-0.2-0.4-0.4s0.2-0.4,0.4-0.4c0.2,0,0.4,0.2,0.4,0.4S19.5,20.6,19.3,20.6z"/>
  <path class="svg-map-marker" d="M20.1,15.9c-0.4,0-0.8,0.4-0.8,0.8c0,0.4,0.7,1.6,0.8,1.6c0,0,0.8-1.2,0.8-1.6C20.9,16.3,20.5,15.9,20.1,15.9z M20.1,17.1c-0.2,0-0.4-0.2-0.4-0.4s0.2-0.4,0.4-0.4c0.2,0,0.4,0.2,0.4,0.4S20.3,17.1,20.1,17.1z"/>
  <path class="svg-map-marker" d="M18.1,11.7c-0.4,0-0.8,0.4-0.8,0.8c0,0.4,0.7,1.6,0.8,1.6c0,0,0.8-1.2,0.8-1.6C18.9,12.1,18.5,11.7,18.1,11.7z M18.1,12.9c-0.2,0-0.4-0.2-0.4-0.4c0-0.2,0.2-0.4,0.4-0.4s0.4,0.2,0.4,0.4C18.5,12.7,18.3,12.9,18.1,12.9z"/>
  <path class="svg-map-marker" d="M17.2,18.6c-0.4,0-0.8,0.4-0.8,0.8c0,0.4,0.7,1.6,0.8,1.6c0,0,0.8-1.2,0.8-1.6C18,18.9,17.6,18.6,17.2,18.6z M17.2,19.8c-0.2,0-0.4-0.2-0.4-0.4s0.2-0.4,0.4-0.4s0.4,0.2,0.4,0.4S17.4,19.8,17.2,19.8z"/>
  <path class="svg-map-marker" d="M18.9,23c-0.4,0-0.8,0.4-0.8,0.8c0,0.4,0.7,1.6,0.8,1.6c0,0,0.8-1.2,0.8-1.6C19.6,23.3,19.3,23,18.9,23z M18.9,24.2c-0.2,0-0.4-0.2-0.4-0.4s0.2-0.4,0.4-0.4s0.4,0.2,0.4,0.4S19.1,24.2,18.9,24.2z"/>
  <path class="svg-map-marker" d="M20.9,21.7c-0.4,0-0.8,0.4-0.8,0.8c0,0.4,0.7,1.6,0.8,1.6c0,0,0.8-1.2,0.8-1.6C21.7,22.1,21.3,21.7,20.9,21.7z M20.9,22.9c-0.2,0-0.4-0.2-0.4-0.4s0.2-0.4,0.4-0.4s0.4,0.2,0.4,0.4S21.1,22.9,20.9,22.9z"/>
  <path class="svg-map-marker" d="M29.3,14.9c-0.4,0-0.8,0.4-0.8,0.8c0,0.4,0.7,1.6,0.8,1.6c0,0,0.8-1.2,0.8-1.6C30.1,15.3,29.8,14.9,29.3,14.9z M29.3,16.1c-0.2,0-0.4-0.2-0.4-0.4s0.2-0.4,0.4-0.4c0.2,0,0.4,0.2,0.4,0.4S29.6,16.1,29.3,16.1z"/>
  <path class="svg-map-marker" d="M22,19.8c-0.4,0-0.8,0.4-0.8,0.8c0,0.4,0.7,1.6,0.8,1.6c0,0,0.8-1.2,0.8-1.6C22.8,20.1,22.5,19.8,22,19.8z M22,21c-0.2,0-0.4-0.2-0.4-0.4c0-0.2,0.2-0.4,0.4-0.4s0.4,0.2,0.4,0.4C22.5,20.8,22.3,21,22,21z"/>
</svg>