<svg version="1.1" xmlns="http://www.w3.org/2000/svg" viewBox="0 0 74.9 74.9">
<circle class="svg-phonepin-background" cx="37.4" cy="37.4" r="35.4"/>
<path class="svg-phonepin-devicebackground" d="M49,18.8c0-1.3-1.1-2.4-2.4-2.4H28.4c-1.3,0-2.4,1.1-2.4,2.4V52c0,1.3,1.1,2.4,2.4,2.4h18.1 c1.3,0,2.4-1.1,2.4-2.4V18.8z"/>
<g "svg-phonepin-logo">
  <circle cx="43.2" cy="43.7" r="0.6"/>
  <path d="M42.7,35.7c-1.8-0.4-4.2-0.6-6.2-0.5c0.8-1.5,1.9-3,2.9-3.9l-0.3-0.2c0,0-2.6,1.6-4.4,5.7l0.8,0.3 c0.2-0.4,0.5-0.9,0.7-1.3c1.8,0,4.4,0.2,6.6,0.6c-2.4,0.4-6.9,1.5-9.4,7.2c0,0,0.4-2.8,1.7-5.2c0.3,0.1,0.8,0.3,0.8,0.3l0.7-0.6 c-1.7-0.8-3.7-1.4-5.8-1.6c0,0,1.4-0.4,3.9-0.6l0.4-0.6c-4,0.2-7,1.3-6.4,1.5c0.7,0.2,2.6,0.3,5.5,1.3c-1.7,3.8-2,8.3-1.4,8.6 c0.6,0.4,2.1-4.7,5-7c0,0,2.6,1.3,4.7,3.4c0.1-0.1,0.2-0.2,0.3-0.2c-1.2-1.5-2.8-2.9-4.3-3.7c1.1-0.8,3.1-1.6,5.1-2 C44.3,36.9,46,36.4,42.7,35.7z"/>
  <circle class="st2" cx="40" cy="30.4" r="0.6"/>
</g>
<g class="svg-phonepin-roads">
  <line x1="25.7" y1="29.5" x2="48.9" y2="17.9"/>
  <line x1="43.7" y1="20.4" x2="49.9" y2="30.4"/>
  <line x1="40" y1="22.3" x2="49.8" y2="37.4"/>
  <polyline points="33.9,25.2 30.6,19.3 38,16.2 "/>
  <line x1="31.7" y1="55.5" x2="49.8" y2="46.9"/>
  <line x1="45.7" y1="48.7" x2="48.7" y2="54.6"/>
  <line x1="41.2" y1="51" x2="44.4" y2="57.1"/>
</g>
<path class="svg-phonepin-devicebackground" d="M34.9,26.7c-1.3,0-2.4,1.1-2.4,2.4c0,1.3,2.2,5,2.4,5c0,0,2.4-3.6,2.4-5C37.3,27.8,36.2,26.7,34.9,26.7z M34.9,30.4c-0.7,0-1.3-0.6-1.3-1.3s0.6-1.3,1.3-1.3c0.7,0,1.3,0.6,1.3,1.3S35.7,30.4,34.9,30.4z"/>
<path class="svg-phonepin-body" d="M24,15.4v43h27v-43H24z M49,52c0,1.3-1.1,2.4-2.4,2.4H28.4c-1.3,0-2.4-1.1-2.4-2.4V18.8c0-1.3,1.1-2.4,2.4-2.4 h18.1c1.3,0,2.4,1.1,2.4,2.4V52z"/>
<path class="svg-phonepin-mic" d="M42.1,57.2h-9.3c-0.1,0-0.3-0.1-0.3-0.3v0c0-0.1,0.1-0.3,0.3-0.3h9.3c0.1,0,0.3,0.1,0.3,0.3v0 C42.3,57.1,42.2,57.2,42.1,57.2z"/>
</svg>
