<svg version="1.1" xmlns="http://www.w3.org/2000/svg" viewBox="0 0 70.9 70.9">
  <circle class="svg-prsopect-background" cx="35.4" cy="35.4" r="33.9"/>
  <g class="svg-prospect-lines">
    <path  d="M38.1,38.4c0.4-0.1,0.8-0.2,1.1-0.3h-8.2c0.4,0.1,0.7,0.2,1.1,0.3H38.1z"/>
    <path  d="M42.7,36.4H29.9h-0.3h-2c0.2,0.1,0.3,0.2,0.5,0.3h1.5h0.3h12.3C42.4,36.6,42.6,36.6,42.7,36.4z"/>
    <path  d="M44.7,34.7H29.9h-0.3h-4c0.1,0.1,0.2,0.2,0.3,0.3h3.7h0.3h14.5C44.5,34.9,44.6,34.8,44.7,34.7z"/>
    <path  d="M46.2,33H29.9h-0.3h-5.4c0.1,0.1,0.2,0.2,0.2,0.3h5.2h0.3h16C46,33.2,46.1,33.1,46.2,33z"/>
    <path  d="M47.1,31.3H29.9h-0.3h-6.4c0,0.1,0.1,0.2,0.1,0.3h6.2h0.3H47C47.1,31.5,47.1,31.4,47.1,31.3z"/>
    <path  d="M47.9,29.6H29.9h-0.3h-7.1c0,0.1,0.1,0.2,0.1,0.3h7h0.3h17.8C47.8,29.8,47.8,29.7,47.9,29.6z"/>
    <path  d="M48.3,27.9H29.9h-0.3h-7.5c0,0.1,0,0.2,0.1,0.3h7.5h0.3h18.3C48.3,28.1,48.3,28,48.3,27.9z"/>
    <path  d="M48.5,26.2H29.9h-0.3h-7.7c0,0.1,0,0.2,0,0.3h7.7h0.3h18.6C48.5,26.4,48.5,26.3,48.5,26.2z"/>
    <path  d="M29.9,24.8h18.6c0-0.1,0-0.2,0-0.3H29.9h-0.3h-7.7c0,0.1,0,0.2,0,0.3h7.8H29.9z"/>
    <path  d="M29.9,23.1h18.4c0-0.1,0-0.2,0-0.3H29.9h-0.3h-7.5c0,0.1,0,0.2,0,0.3h7.6H29.9z"/>
    <path  d="M29.9,21.4h18c0-0.1-0.1-0.2-0.1-0.3H29.9h-0.3h-7.1c0,0.1-0.1,0.2-0.1,0.3h7.2H29.9z"/>
    <path  d="M29.9,19.7h17.4c0-0.1-0.1-0.2-0.1-0.3H29.9h-0.3h-6.4c0,0.1-0.1,0.2-0.1,0.3h6.5H29.9z"/>
    <path  d="M29.9,18h16.4c-0.1-0.1-0.1-0.2-0.2-0.3H29.9h-0.3h-5.4c-0.1,0.1-0.1,0.2-0.2,0.3h5.6H29.9z"/>
    <path  d="M29.9,16.3H45c-0.1-0.1-0.2-0.2-0.3-0.3H29.9h-0.3h-3.9c-0.1,0.1-0.2,0.2-0.3,0.3h4.2H29.9z"/>
    <path  d="M42.7,14.3h-15c-0.1,0.1-0.3,0.2-0.4,0.3h15.8C42.9,14.5,42.8,14.4,42.7,14.3z"/>
    <path  d="M39.1,12.6h-7.8c-0.3,0.1-0.6,0.2-0.8,0.3h9.5C39.7,12.8,39.4,12.7,39.1,12.6z"/>
    <path  d="M29.6,67h-0.9c0.6,0.1,1.1,0.2,1.7,0.3h9.7c0.6-0.1,1.2-0.2,1.8-0.3H29.9H29.6z"/>
    <path  d="M29.6,65.3h-6.4c0.2,0.1,0.5,0.2,0.8,0.3h5.7h0.3H47c0.3-0.1,0.5-0.2,0.8-0.3H29.9H29.6z"/>
    <path  d="M29.6,63.6h-9.9c0.2,0.1,0.4,0.2,0.5,0.3h9.4h0.3h20.9c0.2-0.1,0.4-0.2,0.5-0.3H29.9H29.6z"/>
    <path  d="M29.6,61.9H17c0.1,0.1,0.3,0.2,0.4,0.3h12.2h0.3h23.7c0.1-0.1,0.3-0.2,0.4-0.3H29.9H29.6z"/>
    <path  d="M29.6,60.2H14.8c0.1,0.1,0.2,0.2,0.4,0.3h14.4h0.3h26c0.1-0.1,0.2-0.2,0.4-0.3H29.9H29.6z"/>
    <path  d="M29.6,58.5H13c0.1,0.1,0.2,0.2,0.3,0.3h16.3h0.3h27.9c0.1-0.1,0.2-0.2,0.3-0.3H29.9H29.6z"/>
    <path  d="M29.6,56.8H11.4c0.1,0.1,0.2,0.2,0.3,0.3h18h0.3h29.5c0.1-0.1,0.2-0.2,0.3-0.3H29.9H29.6z"/>
    <path  d="M29.6,55.1H10c0.1,0.1,0.2,0.2,0.2,0.3h19.4h0.3h30.9c0.1-0.1,0.2-0.2,0.2-0.3H29.9H29.6z"/>
    <path  d="M62,53.4H29.9h-0.3H9.4c-0.1,0.1-0.1,0.2-0.2,0.3h20.5h0.3h32C62,53.6,62,53.5,62,53.4
        C62,53.5,62,53.5,62,53.4z"/>
    <path  d="M29.9,52h31c-0.1-0.1-0.2-0.2-0.3-0.3H29.9h-0.3h-19c-0.1,0.1-0.2,0.2-0.2,0.3h19.2H29.9z"/>
    <path  d="M29.9,50.3h29.6c-0.1-0.1-0.2-0.2-0.3-0.3H29.9h-0.3H12c-0.1,0.1-0.2,0.2-0.3,0.3h17.9H29.9z"/>
    <path  d="M29.9,48.6h27.9c-0.1-0.1-0.2-0.2-0.3-0.3H29.9h-0.3H13.5c-0.1,0.1-0.2,0.2-0.3,0.3h16.4H29.9z"/>
    <path  d="M29.9,46.9h26c-0.1-0.1-0.2-0.2-0.4-0.3H29.9h-0.3H15.3c-0.1,0.1-0.2,0.2-0.3,0.3h14.7H29.9z"/>
    <path  d="M29.9,45.2h23.8c-0.1-0.1-0.3-0.2-0.4-0.3H29.9h-0.3H17.3c-0.1,0.1-0.3,0.2-0.4,0.3h12.7H29.9z"/>
    <path  d="M29.9,43.5h21.2c-0.2-0.1-0.3-0.2-0.5-0.3H29.9h-0.3h-10c-0.2,0.1-0.3,0.2-0.5,0.3h10.4H29.9z"/>
    <path  d="M29.6,41.8h0.3h18c-0.2-0.1-0.4-0.2-0.6-0.3H29.9h-0.3h-6.9c-0.2,0.1-0.4,0.2-0.6,0.3H29.6z"/>
    <path  d="M26.5,40.1h3.2h0.3h13.5c-0.4-0.1-0.7-0.2-1.1-0.3H29.9h-0.3h-2.1C27.2,39.9,26.8,40,26.5,40.1z"/>
  </g>
</svg>
