<svg version="1.1" xmlns="http://www.w3.org/2000/svg" viewBox="0 0 57.9 57.9">
  <circle class="svg-store-background" cx="29" cy="29" r="29"/>
  <g id="svg-store-store">
    <path class="svg-store-structure" d="M51.2,35.3c0-0.3-0.1-0.6-0.4-0.7c-0.4-0.1-0.5-0.4-0.5-0.8c0-3.3,0-6.5,0-9.8 c0-0.2,0-0.4,0-0.6c0.3,0,0.6,0,0.9-0.1c0-1.6,0-3.1,0-4.6c0-0.2-0.2-0.4-0.3-0.4c-1.5-0.9-3-1.7-4.5-2.6c-0.2-0.1-0.4-0.2-0.7-0.2 c-10.8,0-21.6,0-32.4,0c-0.2,0-0.5,0.1-0.7,0.2c-1.7,0.8-3.4,1.7-5.1,2.5c-0.3,0.1-0.4,0.3-0.4,0.6c0,1.3,0,2.7,0,4 c0,0.2,0,0.3,0,0.5c0.3,0,0.5,0,0.8,0.1c0,0.1,0,0.2,0,0.2c0,3.4,0,6.9,0,10.3c0,0.2-0.2,0.4-0.3,0.5c-0.3,0.2-0.5,0.3-0.5,0.7 c0,0.8,0,1.6,0,2.5c0,0.6,0,1.3,0,1.9c14.7,0,29.4,0,44.1,0C51.2,38.2,51.2,36.8,51.2,35.3z"/>
    <g class="svg-store-logo">
      <path d="M18,18.8c-0.5-0.1-1.1-0.2-1.7-0.1c0.2-0.4,0.5-0.8,0.8-1.1L17,17.5c0,0-0.7,0.4-1.2,1.6l0.2,0.1 c0.1-0.1,0.1-0.2,0.2-0.4c0.5,0,1.2,0,1.8,0.2c-0.7,0.1-1.9,0.4-2.6,2c0,0,0.1-0.8,0.5-1.4c0.1,0,0.2,0.1,0.2,0.1l0.2-0.2 c-0.5-0.2-1-0.4-1.6-0.4c0,0,0.4-0.1,1.1-0.2l0.1-0.2c-1.1,0-1.9,0.4-1.8,0.4c0.2,0.1,0.7,0.1,1.5,0.3c-0.5,1-0.6,2.3-0.4,2.4 c0.2,0.1,0.6-1.3,1.4-1.9c0,0,0.7,0.4,1.3,0.9c0,0,0,0,0.1-0.1c-0.3-0.4-0.8-0.8-1.2-1c0.3-0.2,0.9-0.4,1.4-0.5 C18.4,19.1,18.9,18.9,18,18.8z"/>
      <circle cx="18.1" cy="21" r="0.2"/>
      <circle cx="17.3" cy="17.3" r="0.2"/>
    </g>
      <path id="svg-store-door-one" class="svg-store-door" d="M22.9,23.7c-2.1,0-4.1,0-6.1,0c0,5,0,10,0,15c2.1,0,4.1,0,6.1,0C22.9,33.7,22.9,28.7,22.9,23.7z"/>
      <path id="svg-store-door-two" class="svg-store-door" d="M15.8,23.7c-1.9,0-3.8,0-5.6,0c0,5,0,10,0,15.1c1.9,0,3.7,0,5.6,0C15.8,33.7,15.8,28.7,15.8,23.7z"/>
      <rect class="svg-store-window" x="24.7" y="23.7" width="7.3" height="8.8"/>
      <rect class="svg-store-window" x="33" y="23.7" width="7.3" height="8.8"/>
      <rect class="svg-store-window" x="41.2" y="23.7" width="7.3" height="8.8"/>
  </g>
  <g class="svg-store-man">
    <polygon id="svg-man-torso" points="12.7,35.4 12.6,35.2 10.6,34.4 10.3,34.6 9.9,35.4 9.8,36.3 9.2,39.7 9.6,40 10.6,39.7 11.6,39.7 11.6,38.8 12,37.2 12.4,36.2"/>
    <polygon id="svg-man-R-leg" points="10.6,39.7 11.8,41.3 12.9,44.6 13.8,44.3 12.9,40.8 11.6,38.8 10.1,38"/>
    <circle id="svg-man-head" cx="12" cy="33.3" r="1.2"/>
    <polygon id="svg-man-L-leg" points="9.3,38.9 8.9,41.4 7.1,44 7.8,44.6 10,41.9 10.6,39.7 10.8,38.6"/>
    <polygon id="svg-man-R-arm" points="12,37.2 12.2,37.7 13.2,39.3 13.8,39 12.9,37.4 12.7,35.4 11.5,35.5"/>
    <polygon id="svg-man-L-arm" points="10.3,34.6 8.2,36.1 8,38.1 8.7,38.2 8.9,36.6 9.8,36.3 10.8,35.4"/>
  </g>
</svg>







<!-- Generator: Adobe Illustrator 19.1.0, SVG Export Plug-In  -->
<svg version="1.1" xmlns="http://www.w3.org/2000/svg" viewBox="0 0 57.9 57.9">
<circle id="svg-store-background_1_" class="st0" cx="29" cy="29" r="29"/>
<g id="svg-store-store_1_">
  <path id="svg-store-structure_1_" class="st1" d="M51.2,35.3c0-0.3-0.1-0.6-0.4-0.7c-0.4-0.1-0.5-0.4-0.5-0.8c0-3.3,0-6.5,0-9.8
    c0-0.2,0-0.4,0-0.6c0.3,0,0.6,0,0.9-0.1c0-1.6,0-3.1,0-4.6c0-0.2-0.2-0.4-0.3-0.4c-1.5-0.9-3-1.7-4.5-2.6c-0.2-0.1-0.4-0.2-0.7-0.2
    c-10.8,0-21.6,0-32.4,0c-0.2,0-0.5,0.1-0.7,0.2c-1.7,0.8-3.4,1.7-5.1,2.5c-0.3,0.1-0.4,0.3-0.4,0.6c0,1.3,0,2.7,0,4
    c0,0.2,0,0.3,0,0.5c0.3,0,0.5,0,0.8,0.1c0,0.1,0,0.2,0,0.2c0,3.4,0,6.9,0,10.3c0,0.2-0.2,0.4-0.3,0.5c-0.3,0.2-0.5,0.3-0.5,0.7
    c0,0.8,0,1.6,0,2.5c0,0.6,0,1.3,0,1.9c14.7,0,29.4,0,44.1,0C51.2,38.2,51.2,36.8,51.2,35.3z"/>
  <g id="svg-store-logo_1_">
    <path class="st2" d="M18,18.8c-0.5-0.1-1.1-0.2-1.7-0.1c0.2-0.4,0.5-0.8,0.8-1.1L17,17.5c0,0-0.7,0.4-1.2,1.6l0.2,0.1
      c0.1-0.1,0.1-0.2,0.2-0.4c0.5,0,1.2,0,1.8,0.2c-0.7,0.1-1.9,0.4-2.6,2c0,0,0.1-0.8,0.5-1.4c0.1,0,0.2,0.1,0.2,0.1l0.2-0.2
      c-0.5-0.2-1-0.4-1.6-0.4c0,0,0.4-0.1,1.1-0.2l0.1-0.2c-1.1,0-1.9,0.4-1.8,0.4c0.2,0.1,0.7,0.1,1.5,0.3c-0.5,1-0.6,2.3-0.4,2.4
      c0.2,0.1,0.6-1.3,1.4-1.9c0,0,0.7,0.4,1.3,0.9c0,0,0,0,0.1-0.1c-0.3-0.4-0.8-0.8-1.2-1c0.3-0.2,0.9-0.4,1.4-0.5
      C18.4,19.1,18.9,18.9,18,18.8z"/>
    <circle class="st2" cx="18.1" cy="21" r="0.2"/>
    <circle class="st2" cx="17.3" cy="17.3" r="0.2"/>
  </g>
  <g id="svg-store-doors_1_">
    <path class="st3" d="M22.9,23.7c-2.1,0-4.1,0-6.1,0c0,5,0,10,0,15c2.1,0,4.1,0,6.1,0C22.9,33.7,22.9,28.7,22.9,23.7z"/>
    <path class="st3" d="M15.8,23.7c-1.9,0-3.8,0-5.6,0c0,5,0,10,0,15.1c1.9,0,3.7,0,5.6,0C15.8,33.7,15.8,28.7,15.8,23.7z"/>
  </g>
  <g id="svg-store-windows_2_">
    <rect x="24.7" y="23.7" class="st3" width="7.3" height="8.8"/>
    <rect x="33" y="23.7" class="st3" width="7.3" height="8.8"/>
    <rect x="41.2" y="23.7" class="st3" width="7.3" height="8.8"/>
  </g>
</g>
<g id="svg-store-man_1_">
  <polygon id="svg-man-torso_1_" class="st4" points="12.7,35.4 12.6,35.2 10.6,34.4 10.3,34.6 9.9,35.4 9.8,36.3 9.2,39.7 9.6,40
    10.6,39.7 11.6,39.7 11.6,38.8 12,37.2 12.4,36.2   "/>
  <polygon id="svg-man-R-leg_1_" class="st4" points="10.6,39.7 11.8,41.3 12.9,44.6 13.8,44.3 12.9,40.8 11.6,38.8 10.1,38  "/>
  <circle id="svg-man-head_1_" class="st4" cx="12" cy="33.3" r="1.2"/>
  <polygon id="svg-man-L-leg_1_" class="st4" points="9.3,38.9 8.9,41.4 7.1,44 7.8,44.6 10,41.9 10.6,39.7 10.8,38.6  "/>
  <polygon id="svg-man-R-arm_1_" class="st4" points="12,37.2 12.2,37.7 13.2,39.3 13.8,39 12.9,37.4 12.7,35.4 11.5,35.5  "/>
  <polygon id="svg-man-L-arm_1_" class="st4" points="10.3,34.6 8.2,36.1 8,38.1 8.7,38.2 8.9,36.6 9.8,36.3 10.8,35.4   "/>
</g>
</svg>
