<svg version="1.1" xmlns="http://www.w3.org/2000/svg" viewBox="0 0 38.9 34">
<rect id="svg-touch-screen" class="svg-touch-screen" x="0.5" y="0.5" width="37.9" height="26.9"/>
<path id="svg-touch-hand" class="svg-touch-hand" d="M22.1,25.8c0,0,0-11.6,0-12.2c0-2.9,3.2-3,3.2-0.2l0.1,5.2c0,0,0.3-0.9,1.9-0.8c0.3,0,1.1,0.3,1.4,1.1
  c0.1,0.4,0.3,1.2,0.3,1.2s0.8-1.3,2-1c0.8,0.2,1.2,0.8,1.4,1.4s0.2,1.9,0.2,1.9s0.3-1.4,1.6-1.3c1.3,0.1,1.3,1.9,1.3,1.9
  s-0.1,5.1-1.1,7.8s-1.5,3.5-2.9,3.8c-1.1,0.2-6.8,0.5-8-0.6c-0.9-0.9-4.2-6.5-4.2-6.5s-2-3.4-1.7-4.5c0.3-1.2,2.2-1.4,3-0.2
  C21.3,24,22.1,25.8,22.1,25.8z"/>
<line class="svg-touch-line" x1="23.6" y1="10.1" x2="23.6" y2="3.1"/>
<line class="svg-touch-line" x1="20.1" y1="13.6" x2="13.1" y2="13.6"/>
<line class="svg-touch-line" x1="34.1" y1="13.6" x2="27.1" y2="13.6"/>
<line class="svg-touch-line" x1="26.1" y1="11.1" x2="31" y2="6.2"/>
<line class="svg-touch-line" x1="21" y1="11.1" x2="16.1" y2="6.2"/>
</svg>




<svg version="1.1" xmlns="http://www.w3.org/2000/svg" viewBox="0 0 40.6 36.3">
<rect id="svg-touch-screen" class="svg-touch-screen" x="0.5" y="0.5" width="39.6" height="28.1"/>
<path id="svg-touch-hand" class="svg-touch-hand" d="M22.8,27c0,0,0-12.1,0-12.8c0-3.1,3.5-3.2,3.4-0.2l0.1,5.5c0,0,0.3-1,2-0.9c0.3,0,1.2,0.3,1.5,1.1
  c0.2,0.4,0.3,1.2,0.3,1.2s0.9-1.3,2.1-1.1c0.9,0.2,1.2,0.8,1.4,1.5s0.2,2,0.2,2s0.3-1.4,1.6-1.4c1.3,0.1,1.4,2,1.4,2
  s-0.1,5.3-1.1,8.1s-1.6,3.7-3,4c-1.2,0.2-7.2,0.5-8.3-0.6c-1-1-4.4-6.8-4.4-6.8s-2.1-3.5-1.8-4.7c0.3-1.3,2.2-1.5,3-0.2
  C22.1,25,22.8,27,22.8,27z"/>
<line class="svg-touch-line" x1="24.3" y1="10.1" x2="24.3" y2="3.1"/>
<line class="svg-touch-line" x1="20.8" y1="14.6" x2="13.8" y2="14.6"/>
<line class="svg-touch-line" x1="35.8" y1="14.6" x2="27.8" y2="14.6"/>
<line class="svg-touch-line" x1="27.3" y1="11.6" x2="32.4" y2="6.4"/>
<line class="svg-touch-line" x1="22" y1="11.6" x2="16.8" y2="6.4"/>
</svg>
